<svg width="192" height="192" viewBox="0 0 192 192" xmlns="http://www.w3.org/2000/svg">
  <defs>
    <linearGradient id="bgGrad192" x1="0%" y1="0%" x2="100%" y2="100%">
      <stop offset="0%" style="stop-color:#0ea5e9;stop-opacity:1" />
      <stop offset="50%" style="stop-color:#8b5cf6;stop-opacity:1" />
      <stop offset="100%" style="stop-color:#ec4899;stop-opacity:1" />
    </linearGradient>
    <linearGradient id="qrGrad192" x1="0%" y1="0%" x2="100%" y2="100%">
      <stop offset="0%" style="stop-color:#ffffff;stop-opacity:0.98" />
      <stop offset="100%" style="stop-color:#f0f9ff;stop-opacity:0.95" />
    </linearGradient>
    <filter id="shadow192">
      <feDropShadow dx="0" dy="2" stdDeviation="4" flood-opacity="0.25"/>
    </filter>
    <filter id="glow192">
      <feGaussianBlur in="SourceGraphic" stdDeviation="2" result="blur"/>
      <feColorMatrix in="blur" type="matrix" values="1 0 0 0 0  0 1 0 0 0  0 0 1 0 0  0 0 0 12 -5" result="glow"/>
      <feMerge>
        <feMergeNode in="glow"/>
        <feMergeNode in="SourceGraphic"/>
      </feMerge>
    </filter>
  </defs>
  <rect width="192" height="192" rx="42" fill="url(#bgGrad192)"/>
  <g filter="url(#shadow192)">
    <rect x="36" y="36" width="120" height="120" rx="16" fill="url(#qrGrad192)"/>
    <rect x="48" y="48" width="32" height="32" rx="4" fill="#0ea5e9"/>
    <rect x="56" y="56" width="16" height="16" rx="2" fill="#ffffff"/>
    <rect x="112" y="48" width="32" height="32" rx="4" fill="#8b5cf6"/>
    <rect x="120" y="56" width="16" height="16" rx="2" fill="#ffffff"/>
    <rect x="48" y="112" width="32" height="32" rx="4" fill="#ec4899"/>
    <rect x="56" y="120" width="16" height="16" rx="2" fill="#ffffff"/>
    <rect x="92" y="92" width="8" height="8" rx="2" fill="#0ea5e9"/>
    <rect x="104" y="92" width="8" height="8" rx="2" fill="#8b5cf6"/>
    <rect x="92" y="104" width="8" height="8" rx="2" fill="#8b5cf6"/>
    <rect x="104" y="104" width="8" height="8" rx="2" fill="#ec4899"/>
    <rect x="88" y="60" width="6" height="6" rx="1" fill="#6366f1" opacity="0.8"/>
    <rect x="98" y="60" width="6" height="6" rx="1" fill="#6366f1" opacity="0.8"/>
    <rect x="88" y="126" width="6" height="6" rx="1" fill="#6366f1" opacity="0.8"/>
    <rect x="98" y="126" width="6" height="6" rx="1" fill="#6366f1" opacity="0.8"/>
  </g>
  <g filter="url(#glow192)">
    <circle cx="160" cy="160" r="20" fill="#ffffff" opacity="0.95"/>
    <text x="160" y="169" font-family="-apple-system, BlinkMacSystemFont, 'Segoe UI', Arial, sans-serif" font-size="24" font-weight="900" fill="url(#bgGrad192)" text-anchor="middle">p</text>
  </g>
</svg>
