<svg width="512" height="512" viewBox="0 0 512 512" xmlns="http://www.w3.org/2000/svg">
  <defs>
    <linearGradient id="bgGrad512" x1="0%" y1="0%" x2="100%" y2="100%">
      <stop offset="0%" style="stop-color:#0ea5e9;stop-opacity:1" />
      <stop offset="50%" style="stop-color:#8b5cf6;stop-opacity:1" />
      <stop offset="100%" style="stop-color:#ec4899;stop-opacity:1" />
    </linearGradient>
    <linearGradient id="qrGrad512" x1="0%" y1="0%" x2="100%" y2="100%">
      <stop offset="0%" style="stop-color:#ffffff;stop-opacity:0.98" />
      <stop offset="100%" style="stop-color:#f0f9ff;stop-opacity:0.95" />
    </linearGradient>
    <filter id="shadow512">
      <feDropShadow dx="0" dy="4" stdDeviation="8" flood-opacity="0.25"/>
    </filter>
    <filter id="glow512">
      <feGaussianBlur in="SourceGraphic" stdDeviation="4" result="blur"/>
      <feColorMatrix in="blur" type="matrix" values="1 0 0 0 0  0 1 0 0 0  0 0 1 0 0  0 0 0 12 -5" result="glow"/>
      <feMerge>
        <feMergeNode in="glow"/>
        <feMergeNode in="SourceGraphic"/>
      </feMerge>
    </filter>
  </defs>
  <rect width="512" height="512" rx="112" fill="url(#bgGrad512)"/>
  <g filter="url(#shadow512)">
    <rect x="96" y="96" width="320" height="320" rx="40" fill="url(#qrGrad512)"/>
    <rect x="128" y="128" width="84" height="84" rx="12" fill="#0ea5e9"/>
    <rect x="146" y="146" width="48" height="48" rx="6" fill="#ffffff"/>
    <rect x="300" y="128" width="84" height="84" rx="12" fill="#8b5cf6"/>
    <rect x="318" y="146" width="48" height="48" rx="6" fill="#ffffff"/>
    <rect x="128" y="300" width="84" height="84" rx="12" fill="#ec4899"/>
    <rect x="146" y="318" width="48" height="48" rx="6" fill="#ffffff"/>
    <rect x="240" y="240" width="24" height="24" rx="4" fill="#0ea5e9"/>
    <rect x="272" y="240" width="24" height="24" rx="4" fill="#8b5cf6"/>
    <rect x="240" y="272" width="24" height="24" rx="4" fill="#8b5cf6"/>
    <rect x="272" y="272" width="24" height="24" rx="4" fill="#ec4899"/>
    <rect x="228" y="160" width="16" height="16" rx="3" fill="#6366f1" opacity="0.8"/>
    <rect x="252" y="160" width="16" height="16" rx="3" fill="#6366f1" opacity="0.8"/>
    <rect x="276" y="160" width="16" height="16" rx="3" fill="#6366f1" opacity="0.8"/>
    <rect x="228" y="336" width="16" height="16" rx="3" fill="#6366f1" opacity="0.8"/>
    <rect x="252" y="336" width="16" height="16" rx="3" fill="#6366f1" opacity="0.8"/>
    <rect x="276" y="336" width="16" height="16" rx="3" fill="#6366f1" opacity="0.8"/>
    <rect x="160" y="228" width="16" height="16" rx="3" fill="#6366f1" opacity="0.8"/>
    <rect x="160" y="252" width="16" height="16" rx="3" fill="#6366f1" opacity="0.8"/>
    <rect x="160" y="276" width="16" height="16" rx="3" fill="#6366f1" opacity="0.8"/>
    <rect x="336" y="228" width="16" height="16" rx="3" fill="#6366f1" opacity="0.8"/>
    <rect x="336" y="252" width="16" height="16" rx="3" fill="#6366f1" opacity="0.8"/>
    <rect x="336" y="276" width="16" height="16" rx="3" fill="#6366f1" opacity="0.8"/>
  </g>
  <g filter="url(#glow512)">
    <circle cx="424" cy="424" r="52" fill="#ffffff" opacity="0.95"/>
    <text x="424" y="448" font-family="-apple-system, BlinkMacSystemFont, 'Segoe UI', Arial, sans-serif" font-size="64" font-weight="900" fill="url(#bgGrad512)" text-anchor="middle">p</text>
  </g>
</svg>
